# xmcd
#
# Track frame offsets:
#	150
#	20173
#	35827
#	50945
#	70093
#	82893
#	105187
#	116328
#	138695
#	152081
#	165810
#	183318
#	195683
#	205854
#	218378
#	235827
#	251813
#	267458
#	285356
#	299815
#
# Disc length: 4201 seconds
#
# Revision: 5
# Processed by: cddbd v1.5.1PL0 Copyright (c) Steve Scherf et al.
# Submitted via: EasyCDDAExtractor 8.1.4.1
#
DISCID=25106714
DTITLE=RAUL SEIXAS - as 20 mais
DYEAR=2004
DGENRE=Blues
TTITLE0=O DIA EM QUE A TERRA PAROU
TTITLE1=MALUCO BELEZA 
TTITLE2=SAPATO 36
TTITLE3=MAMAE EU NAO QUERIA
TTITLE4=JUDAS
TTITLE5=GITA
TTITLE6=TENTE OUTRA VEZ
TTITLE7=EU NASCI HA 10 MIL ANOS ATRAS
TTITLE8=OURO DE TOLO
TTITLE9=MEDO DA CHUVA
TTITLE10=METAMORFOSE AMBULANTE
TTITLE11=TREM DAS 7
TTITLE12=CACHORRO URUBU
TTITLE13=AL CAPONE
TTITLE14=ROCKIXE
TTITLE15=CAPIM GUINE
TTITLE16=A MACA
TTITLE17=TU ES O MDC DA MINHA VIDA 
TTITLE18=S. O. S.
TTITLE19=EU TAMBEM VOU RECLAMAR
EXTD=
EXTT0=
EXTT1=
EXTT2=
EXTT3=
EXTT4=
EXTT5=
EXTT6=
EXTT7=
EXTT8=
EXTT9=
EXTT10=
EXTT11=
EXTT12=
EXTT13=
EXTT14=
EXTT15=
EXTT16=
EXTT17=
EXTT18=
EXTT19=
PLAYORDER=
